<?xml version="1.0" encoding="UTF-8"?>
<svg xmlns="http://www.w3.org/2000/svg" viewBox="0 0 1000 1000" width="1000" height="1000">
  <rect width="1000" height="1000" fill="#1B2A3A"/>
  <circle cx="500.0" cy="500.0" r="460.0" fill="none" stroke="#B08D57" stroke-width="3"/>
  <circle cx="500.0" cy="500.0" r="452.0" fill="none" stroke="#B08D57" stroke-width="0.6" opacity="0.55"/>
  <g fill="#F4EDE0" fill-rule="evenodd">
    <path transform="translate(66.443,723.200) scale(0.88571,-0.88571)" d="M541 700Q560 681 560 651Q560 626 549 600L293 0L282 -5L30 700H115L324 108L537 600Q548 625 548.0 652.0Q548 679 533 694Z"/>
    <path transform="translate(477.414,723.200) scale(0.88571,-0.88571)" d="M439 658Q348 693 267.5 693.0Q187 693 142.0 659.0Q97 625 97 565Q97 492 173 452Q207 435 247.5 420.5Q288 406 329.0 388.0Q370 370 404.0 347.0Q438 324 459.0 283.5Q480 243 480.0 180.5Q480 118 445.0 74.0Q410 30 360.5 14.5Q311 -1 245 -1Q122 -1 35 60L40 68Q73 42 125.5 25.5Q178 9 233 9Q314 9 371.5 46.5Q429 84 429 157Q429 237 353 282Q319 302 278.5 319.0Q238 336 197.0 354.5Q156 373 122 396Q46 446 46 538Q46 611 95.0 656.5Q144 702 242.5 702.0Q341 702 443 668Z"/>
  </g>
  <g fill="#F4EDE0" fill-rule="evenodd">
    <path transform="translate(322.345,1030.000) scale(0.06462,-0.06462)" d="M227 0 15 650H94L283 56L475 650H531L315 0Z"/>
    <path transform="translate(373.755,1030.000) scale(0.06462,-0.06462)" d="M94 0V650H170V0Z"/>
    <path transform="translate(406.878,1030.000) scale(0.06462,-0.06462)" d="M94 0V650H173L505 114L502 138V650H557V0H491L145 554H144L149 523V0Z"/>
    <path transform="translate(464.942,1030.000) scale(0.06462,-0.06462)" d="M94 0V650H170V0Z"/>
    <path transform="translate(532.965,1030.000) scale(0.06462,-0.06462)" d="M236 -10Q181 -10 144.0 3.0Q107 16 85.0 32.5Q63 49 53.5 62.0Q44 75 44 75L69 114Q69 114 78.0 102.5Q87 91 106.0 76.5Q125 62 156.5 50.5Q188 39 233 39Q299 39 333.5 76.5Q368 114 368 166Q368 208 347.0 233.5Q326 259 292.5 275.5Q259 292 221.0 307.0Q183 322 149.5 342.0Q116 362 95.0 394.5Q74 427 74 480Q74 563 126.0 611.0Q178 659 265 659Q314 659 348.0 645.0Q382 631 400.5 617.0Q419 603 419 603L409 559Q409 559 391.5 572.5Q374 586 343.0 599.5Q312 613 269 613Q214 613 181.5 582.0Q149 551 149 498Q149 456 170.0 430.5Q191 405 224.5 388.5Q258 372 296.0 357.5Q334 343 367.5 322.0Q401 301 422.0 267.0Q443 233 443 178Q443 123 417.5 80.5Q392 38 345.5 14.0Q299 -10 236 -10Z"/>
    <path transform="translate(580.627,1030.000) scale(0.06462,-0.06462)" d="M310 -10Q198 -10 142.0 52.0Q86 114 86 212V650H161V229Q161 139 201.0 90.0Q241 41 318 41Q399 41 439.0 91.0Q479 141 479 229V650H534V212Q534 148 510.5 97.5Q487 47 437.5 18.5Q388 -10 310 -10Z"/>
    <path transform="translate(636.688,1030.000) scale(0.06462,-0.06462)" d="M94 0V650H292Q431 650 509.0 566.5Q587 483 587 323Q587 165 510.0 82.5Q433 0 292 0ZM170 48H293Q397 48 451.0 114.5Q505 181 505 323Q505 466 450.5 534.0Q396 602 292 602H170Z"/>
  </g>
</svg>